# xmcd CD database file
# Copyright (C) 1996 Ti Kan
#
# Track frame offsets:
#	150
#	14955
#	27705
#	41299
#	58575
#	72899
#	92415
#	104288
#	118934
#	134660
#	154416
# Disc length: 2332 seconds
#
# Revision: 1
# Processed by: cddbd v1.5.1PL0 Copyright (c) Steve Scherf et al.
# Submitted via: CDCOPY 4.900
#
DISCID=9f091a0b
DTITLE=Hoegni Lisberg - most beautiful things
DYEAR=1900
DGENRE=
TTITLE0=Caught
TTITLE1=When you get home
TTITLE2=now
TTITLE3=one more day
TTITLE4=embrace
TTITLE5=lost on earth
TTITLE6=dreamers
TTITLE7=fairy of mine
TTITLE8=burn to dust
TTITLE9=most beautiful things
TTITLE10=here comes salvation
EXTD=
EXTT0=
EXTT1=
EXTT2=
EXTT3=
EXTT4=
EXTT5=
EXTT6=
EXTT7=
EXTT8=
EXTT9=
EXTT10=
PLAYORDER=
